<?xml version="1.0" standalone="no"?>
<!DOCTYPE svg PUBLIC "-//W3C//DTD SVG 20010904//EN"
 "http://www.w3.org/TR/2001/REC-SVG-20010904/DTD/svg10.dtd">
<svg version="1.0" xmlns="http://www.w3.org/2000/svg"
 width="512.000000pt" height="512.000000pt" viewBox="0 0 512.000000 512.000000"
 preserveAspectRatio="xMidYMid meet">

<g transform="translate(0.000000,512.000000) scale(0.100000,-0.100000)"
fill="#000000" stroke="none">
<path d="M1 4793 c1 -315 1 -325 15 -259 86 399 500 634 890 505 145 -47 291
-170 375 -314 105 -180 107 -448 4 -643 -71 -135 -175 -237 -310 -302 -109
-52 -170 -65 -305 -64 -131 1 -218 24 -327 88 -162 95 -287 268 -327 452 -13
62 -14 -157 -15 -2093 l-1 -2163 2560 0 2560 0 0 93 c-1 85 -2 90 -14 62 -18
-42 -78 -92 -126 -105 -27 -7 -188 -10 -484 -8 l-444 3 -43 30 c-85 61 -79
-22 -79 1047 0 977 -3 1051 -41 1154 -38 102 -158 205 -287 244 -85 26 -209
27 -291 1 -156 -48 -271 -175 -316 -347 -13 -50 -15 -195 -15 -1019 0 -621 -4
-973 -10 -997 -12 -41 -66 -94 -108 -105 -15 -5 -254 -8 -532 -8 l-505 0 -46
27 c-86 51 -79 -109 -79 1718 0 1376 2 1625 14 1648 19 36 65 78 99 91 19 7
187 11 485 11 513 0 494 2 557 -74 27 -34 30 -46 34 -122 1 -46 5 -84 8 -84 3
0 40 33 83 73 129 120 299 209 489 258 192 49 560 47 761 -5 328 -84 603 -305
755 -606 52 -103 99 -249 114 -350 6 -41 13 -86 15 -100 2 -14 4 563 5 1283
l1 1307 -2560 0 -2560 0 1 -327z m1141 -1285 c25 -16 60 -45 78 -65 63 -78 60
13 60 -1658 0 -1673 4 -1569 -60 -1647 -17 -20 -56 -49 -88 -65 l-57 -28 -395
0 c-437 0 -428 -1 -505 66 -21 19 -49 56 -61 84 l-24 50 0 1544 c0 1143 3
1554 12 1582 16 55 73 118 132 145 l51 24 405 -2 405 -3 47 -27z"/>
<path d="M279 3344 l-24 -26 0 -1525 0 -1525 33 -29 33 -30 369 3 368 3 26 24
26 24 0 1525 0 1524 -29 29 -29 29 -374 0 -375 0 -24 -26z"/>
<path d="M574 4895 c-192 -42 -353 -203 -393 -393 -37 -177 18 -352 148 -475
76 -71 153 -112 249 -133 183 -38 329 4 463 136 105 103 153 219 151 370 -2
241 -167 446 -399 495 -82 18 -138 18 -219 0z"/>
<path d="M3630 3449 c-235 -30 -485 -166 -627 -340 -28 -35 -102 -113 -162
-174 l-111 -110 0 273 0 272 -425 0 -425 0 0 -1580 0 -1580 470 0 470 0 0 963
c0 920 1 967 19 1039 126 493 711 663 1079 314 53 -51 81 -87 107 -140 70
-142 68 -113 74 -1196 l6 -975 420 0 420 0 0 1185 0 1185 -28 100 c-116 423
-444 713 -867 765 -98 12 -325 11 -420 -1z"/>
</g>
</svg>
